<?xml version="1.0" encoding="UTF-8"?>
<svg id="Layer_1" data-name="Layer 1" xmlns="http://www.w3.org/2000/svg" viewBox="0 0 400 400">
  <defs>
    <style>
      .cls-1 {
        fill: #ffffff00;
        stroke: #fff;
        stroke-miterlimit: 10;
        stroke-width: 30px;
      }
    </style>
  </defs>
  <path class="cls-1" d="M339.56,220.41v-40.97l31.22-18.03c-4.45-19.83-12.27-38.39-22.82-55.05l-34.81,9.33-28.97-28.97,9.33-34.81c-16.66-10.55-35.22-18.37-55.05-22.82l-18.03,31.22h-40.97l-18.03-31.22c-19.83,4.45-38.39,12.27-55.05,22.82l9.33,34.81-28.97,28.97-34.81-9.33c-10.55,16.66-18.37,35.22-22.82,55.05l31.22,18.03v40.97l-31.22,18.03c4.45,19.83,12.27,38.39,22.82,55.05l34.81-9.33,28.97,28.97-9.33,34.81c16.66,10.55,35.22,18.37,55.05,22.82l18.03-31.22h40.97l18.12,31.38c20-4.33,38.56-11.98,55.13-22.33l-9.5-35.46,28.97-28.97,35.38,9.48c10.39-16.68,18.03-35.27,22.37-55.13l-31.34-18.1Z"/>
  <circle class="cls-1" cx="200" cy="200" r="72.62"/>
</svg>